<?xml version="1.0" encoding="UTF-8"?>
<svg width="480px" height="400px" viewBox="0 0 480 400" version="1.1" xmlns="http://www.w3.org/2000/svg" xmlns:xlink="http://www.w3.org/1999/xlink">
    <!-- Generator: Sketch 46.2 (44496) - http://www.bohemiancoding.com/sketch -->
    <title>logo</title>
    <desc>Created with Sketch.</desc>
    <defs></defs>
    <g id="logo" stroke="none" stroke-width="1" fill="none" fill-rule="evenodd">
        <g>
            <text id="K9s-4-MOBILITY" font-family=".SFNSDisplay, .SF NS Display" font-size="58" font-weight="normal" letter-spacing="0.90625" fill="#6D6D6D">
                <tspan x="26.2993164" y="372">K9s 4 MOBILITY</tspan>
            </text>
            <g id="person" transform="translate(225.000000, 14.000000)">
                <path d="M30.4047844,155 L30,155 L30,155.057646 C22.5897115,156.199653 16.3918922,161.932096 15.0175214,169.72654 L1.1256672,248.51116 L1.1256672,248.51116 C-0.600591128,258.301257 5.93644209,267.637108 15.7265396,269.363367 L15.7265396,269.363367 L15.7265396,269.363367 C25.516637,271.089625 34.852488,264.552592 36.5787463,254.762494 L47.8217944,191 L70,191 L70,155 L35.0486872,155 C33.4736422,154.795434 31.915648,154.802455 30.4047844,155 Z" id="Combined-Shape" fill="#5BB842"></path>
                <path d="M148.589476,123.705262 L84,156 L84,88.5065778 L84,88.5065778 C84,79.1177371 91.6111593,71.5065778 101,71.5065778 C103.639167,71.5065778 106.242089,72.1210444 108.602631,73.3013156 L148.589476,93.2947378 L148.589476,93.2947378 C156.98711,97.493555 160.390924,107.704997 156.192107,116.102631 C154.547124,119.392597 151.879441,122.060279 148.589476,123.705262 Z" id="Triangle" fill="#5BB842"></path>
                <circle id="head" fill="#5BB842" cx="84" cy="34" r="34"></circle>
                <path d="M122,272 C79.4740743,272 45,237.525926 45,195 C45,152.474074 79.4740743,118 122,118 C164.525926,118 199,152.474074 199,195 C199,237.525926 164.525926,272 122,272 Z M122,246 C150.166522,246 173,223.166522 173,195 C173,166.833478 150.166522,144 122,144 C93.8334778,144 71,166.833478 71,195 C71,223.166522 93.8334778,246 122,246 Z" id="Combined-Shape" fill="#6D6D6D"></path>
                <rect id="arm" fill="#5BB842" x="110.581058" y="88.9525913" width="35.8378837" height="104.094817" rx="17.9189418"></rect>
            </g>
            <g id="doggo" transform="translate(56.000000, 103.000000)">
                <path d="M56.6665043,153.277353 C55.7574801,157.508824 54.4089434,161.454696 52.6993406,165.000002 L64,165 C68.9705627,165 73,169.029437 73,174 C73,178.970563 68.9705627,183 64,183 L26,183 C23.9582048,183 22.0752133,182.32008 20.5650883,181.174304 C8.66279797,175.880022 0,159.672605 0,140.5 C0,124.703851 5.88028478,110.920464 14.6078409,103.594773 C14.8935285,103.216535 15.2732692,102.900673 15.7327934,102.686394 C15.7388182,102.683584 15.7448524,102.680795 15.7508958,102.678026 L15.7508958,102.678026 L15.7734927,102.667671 C18.6525827,100.501503 21.8111774,99.0204564 25.1490429,98.3714244 L89.0680811,69.0812027 C91.9698152,70.3171103 95.155571,71 98.5,71 C112.052837,71 123,59.7858331 123,46 C123,43.790861 121.209139,42 119,42 C116.790861,42 115,43.790861 115,46 C115,55.2217731 107.884473,62.6954325 99.0438202,62.9909238 C90.0326873,62.6988487 82.7940964,55.3938734 82.6083045,46.3562546 C82.587519,46.2406476 82.5766685,46.1215909 82.5766685,46 C82.5766685,45.7104821 82.6395255,45.4244156 82.7608963,45.1615663 L95.9728763,16.5487548 C96.140852,16.1849747 96.3565477,15.858386 96.6090943,15.572991 C100.480503,6.42132707 109.542684,0 120.104646,0 C134.187907,0 145.604646,11.4167389 145.604646,25.5 C145.604646,26.0035422 145.590051,26.5036755 145.56126,27 L160.886902,27 C164.20061,27 166.886902,29.6862915 166.886902,33 C166.886902,33.7324392 166.752794,34.4586886 166.491213,35.1428248 L160.617407,50.5050863 C158.209448,56.8028239 152.11193,60.9152318 145.370744,60.7880396 L138.831021,60.6646486 C132.204783,60.5396252 126.731804,65.8099007 126.606781,72.4361384 C126.605358,72.5115882 126.604646,72.5870499 126.604646,72.6625132 L126.604646,72.6625132 L126.604646,100.5 C126.604646,110.25126 122.028526,118.93371 114.90664,124.516994 C114.625033,124.874261 114.322467,125.216341 114,125.541197 L114,165 L121,165 C125.970563,165 130,169.029437 130,174 C130,178.970563 125.970563,183 121,183 L105,183 C100.029437,183 96,178.970563 96,174 C96,173.661991 96.0186333,173.328334 96.0549288,173 L96,173 L96,134.747911 L64.6444894,149.369226 C63.8609861,134.045109 55.1294065,121.347265 42.3888232,119.556692 C40.2011834,119.24924 38.1785113,120.773432 37.8710585,122.961072 C37.5636058,125.148712 39.0877986,127.171384 41.2754384,127.478837 C50.5523915,128.782628 57.2769253,139.860482 56.6665043,153.277353 Z M133,31 C135.761424,31 138,27.8659932 138,24 C138,20.1340068 135.761424,17 133,17 C130.238576,17 128,20.1340068 128,24 C128,27.8659932 130.238576,31 133,31 Z" id="Combined-Shape" fill="#C3995E"></path>
                <circle id="nose" fill="#6D6D6D" cx="162" cy="32" r="6"></circle>
            </g>
        </g>
    </g>
</svg>